<svg enable-background="new 0 0 300 300" height="512" viewBox="0 0 300 300" width="512" xmlns="http://www.w3.org/2000/svg"><path d="m218 80.811c-4.885 0-9.362 1.766-12.839 4.686-2.616-9.205-11.093-15.969-21.126-15.969-5.371 0-10.295 1.941-14.115 5.154-1.266-10.956-10.595-19.492-21.885-19.492-7.163 0-13.537 3.438-17.565 8.748-3.546-5.28-9.424-8.748-16.074-8.748h-.813c-10.809 0-19.603 9.143-19.603 20.381v33.241h-5.542-6.898c-5.914 0-11.405 2.349-15.063 6.443-3.395 3.799-4.941 8.755-4.355 13.955l7.088 62.841c3.393 30.078 29.096 52.76 59.787 52.76h56.517c28.94 0 52.485-23.22 52.485-51.761v-52.239-40c.001-11.028-8.971-20-19.999-20zm0 8c6.617 0 12 5.383 12 12v40c0 6.617-5.383 12-12 12s-12-5.383-12-12v-40c0-6.617 5.383-12 12-12zm-33.964-11.283c7.7 0 13.964 6.264 13.964 13.964v50.103c0 7.7-6.264 13.964-13.964 13.964s-13.964-6.264-13.964-13.964v-4.852-2.438-42.813c0-7.7 6.264-13.964 13.964-13.964zm-36-14.339c7.739 0 14.036 6.296 14.036 14.036v57.081 2.438c0 7.74-6.296 14.036-14.036 14.036-3.557 0-6.881-1.318-9.425-3.634 7.234-2.969 12.053-9.655 12.053-17.835 0-9.857-7.16-18.107-16.664-20.058v-32.028c0-7.739 6.296-14.036 14.036-14.036zm-34.452 0h.813c6.397 0 11.603 5.554 11.603 12.381v33.241h-24.018v-33.241c0-6.827 5.205-12.381 11.602-12.381zm71.93 173.622h-56.517c-26.616 0-48.901-19.628-51.838-45.657l-7.088-62.841c-.332-2.948.488-5.621 2.371-7.728 2.143-2.398 5.459-3.774 9.098-3.774h6.899 8.721 32.521c7.158 0 12.982 5.607 12.982 12.5 0 6.664-5.326 11.5-12.664 11.5h-31.004c-2.09 0-3.824 1.61-3.984 3.694-.161 2.084 1.315 3.94 3.38 4.26 1.412.219 34.568 5.739 34.568 39.471 0 2.209 1.791 4 4 4s4-1.791 4-4c0-20.856-10.762-32.764-21.308-39.425h9.957c4.092 6.249 10.93 9.969 18.428 9.969 6.499 0 12.348-2.83 16.385-7.32 3.62 7.169 11.05 12.099 19.615 12.099 7.748 0 14.566-4.036 18.477-10.113 3.671 4.49 9.248 7.365 15.486 7.365 4.505 0 8.653-1.515 12-4.038v36.277c.001 24.129-19.955 43.761-44.485 43.761z"/></svg>