<svg enable-background="new 0 0 300 300" height="512" viewBox="0 0 300 300" width="512" xmlns="http://www.w3.org/2000/svg"><path d="m229.067 104.423c-7.196-3.707-15.872-1.042-19.749 6.064l-11.241 20.609 8.517-56.115c.937-6.167-2.183-12.185-7.762-14.974-3.879-1.94-8.371-2.027-12.321-.239-3.951 1.788-6.851 5.219-7.954 9.413l-11.525 43.796v-53.44c0-8.567-7.005-15.537-15.616-15.537h-.285c-8.167 0-14.838 6.391-15.19 14.542l-2.608 57.9c-3.04-15.044-6.501-32.37-8.835-44.652-.91-4.79-3.885-8.881-8.16-11.224-4.295-2.354-9.377-2.657-13.939-.832l-.288.115c-6.679 2.671-10.719 9.521-9.826 16.659l9.893 79.04c-1.884-3.401-3.815-6.889-5.577-10.078-2.366-4.282-6.27-7.34-10.993-8.61-4.747-1.277-9.693-.581-13.931 1.962l-.286.171c-7.454 4.472-10.506 13.875-7.1 21.873l33.591 78.871c4.208 9.879 13.865 16.263 24.604 16.263h47.45c19.03 0 35.368-13.58 38.846-32.289l6.174-33.202c1.16-6.24 2.766-12.456 4.772-18.473l16.598-49.794c2.32-6.964-.732-14.458-7.259-17.819zm-.332 15.29-16.598 49.793c-2.122 6.366-3.82 12.94-5.047 19.541l-6.174 33.202c-2.775 14.921-15.804 25.751-30.982 25.751h-47.45c-7.526 0-14.294-4.474-17.243-11.398l-33.591-78.871c-1.85-4.343-.192-9.45 3.859-11.88l.286-.171c2.356-1.414 5.102-1.803 7.733-1.095 2.607.702 4.762 2.39 6.069 4.754 6.623 11.987 15.621 28.182 15.621 28.182.931 1.675 2.917 2.455 4.739 1.86s2.965-2.398 2.727-4.299l-12.461-99.568c-.442-3.529 1.556-6.917 4.857-8.237l.288-.115c2.337-.935 4.934-.782 7.125.419 2.172 1.19 3.683 3.268 4.145 5.701 5.016 26.393 15.214 75.973 15.316 76.471.407 1.977 2.233 3.353 4.233 3.181 2.012-.159 3.59-1.792 3.681-3.807l4.064-90.233c.168-3.866 3.329-6.894 7.199-6.894h.285c4.199 0 7.616 3.381 7.616 7.537v84.358c0 2.011 1.493 3.709 3.487 3.967s3.87-1.004 4.381-2.949l19.394-73.695c.488-1.854 1.769-3.37 3.516-4.16 1.746-.791 3.73-.752 5.446.105 2.466 1.233 3.844 3.892 3.431 6.618l-11.924 78.566c-.292 1.919.837 3.771 2.677 4.391s3.859-.171 4.789-1.875l22.115-40.544c1.779-3.262 5.76-4.484 9.063-2.783 2.993 1.542 4.393 4.981 3.328 8.177z"/></svg>